<?xml version="1.0" encoding="utf-8"?>
<!-- Generator: Adobe Illustrator 23.0.1, SVG Export Plug-In . SVG Version: 6.00 Build 0)  -->
<svg version="1.1" id="Layer_1" xmlns="http://www.w3.org/2000/svg" xmlns:xlink="http://www.w3.org/1999/xlink" x="0px" y="0px"
	 viewBox="0 0 1366 3990.5" style="enable-background:new 0 0 1366 3990.5;" xml:space="preserve">
<style type="text/css">
	.st0{opacity:0.7;}
	.st1{fill:#FFCE06;}
	.st2{fill:#262013;}
	.st3{fill:#483D24;}
	.st4{fill:#552A15;}
	.st5{opacity:0.82;}
	.st6{fill:#62C0EC;}
	.st7{opacity:0.68;}
	.st8{fill:#CC342F;}
	.st9{opacity:0.38;}
	.st10{opacity:0.89;}
	.st11{fill:#FFFFFF;}
	.st12{fill:#F49E1E;}
	.st13{opacity:0.45;}
	.st14{fill:#21BEE8;}
	.st15{fill:#09ACC6;}
	.st16{opacity:0.14;}
</style>
<g class="st0">
	<path class="st1" d="M86.5,415c4.3,18.4-7.1,36.8-25.5,41c-18.4,4.3-36.8-7.1-41-25.5c-4.3-18.4,7.1-36.8,25.5-41
		C63.8,385.2,82.2,396.6,86.5,415L86.5,415z"/>
	<path class="st2" d="M55.8,407.6c-2,1.2-4.6,1.9-5.6,2.2c-1.1,0.2-3.7,0.7-6,0.5c-4.4-0.4-11.1,0.3-16,1.5
		c-3.7,0.9-7.3,2.3-9.6,3.4c-1,0.5-1.4,1.6-0.9,2.6l0.5,1c0.3,0.6,0.9,0.9,1.6,1c0.3,0,0.7,0.2,0.9,0.5c0.7,1,4.6,7.3,6.4,9.5
		c1.5,1.8,4.7,2.9,11.1,1.5c9.2-2.1,10.9-8.9,11.5-13.1c0.1-0.4,0.1-1.3,0.1-2.1c0-1.2,0.5-2.4,0.7-2.6c0.2-0.1,0.3-0.2,0.5-0.3
		c0.2,0,0.4,0,0.6,0c0.3,0.1,1.2,1,1.8,2c0.4,0.7,0.8,1.4,1,1.8c2.4,3.6,7,8.9,16.1,6.7c6.4-1.5,8.8-3.9,9.3-6.2
		c0.7-2.8,1.4-10.1,1.5-11.4c0-0.4,0.3-0.7,0.6-0.9c0.6-0.4,0.9-0.9,0.9-1.6l0-1.1c0-1.1-0.9-2-2-1.9c-2.5,0.1-6.4,0.5-10.1,1.2
		C65.8,403,59.5,405.4,55.8,407.6L55.8,407.6z"/>
	<path class="st3" d="M55.7,414.1c1.2,4.4,6.5,7.6,10.8,7.7c6.3,0.1,10.4-2.3,11.7-8.3c0.4-1.8,1.2-5.8,0.6-7.7
		c-1-3.3-5.1-1.7-7.8-1.1C70.8,404.6,54,408.1,55.7,414.1L55.7,414.1z"/>
	<path class="st3" d="M47.3,416c0.8,4.5-2.5,9.8-6.3,11.7c-5.6,2.8-10.4,2.6-14.2-2.3c-1.1-1.5-3.6-4.7-4-6.6
		c-0.6-3.4,3.8-3.8,6.4-4.5C29.6,414.3,46.1,409.9,47.3,416L47.3,416z"/>
	<path class="st4" d="M64.3,438.1c-0.9,0.2-1.8,0.4-2.7,0.4c-0.9,0.1-1.7-0.6-1.8-1.5c-0.1-0.9,0.6-1.7,1.5-1.8
		c5.3-0.4,9.5-3.4,10.5-7.7c0.2-0.9,1.1-1.4,2-1.2c0.9,0.2,1.4,1.1,1.2,2C73.8,433.2,69.7,436.9,64.3,438.1L64.3,438.1z"/>
</g>
<g class="st5">
	<path class="st1" d="M1237.4,919.1c-8.6,17.6-29.7,24.9-47.3,16.3c-17.6-8.6-24.9-29.7-16.3-47.3c8.6-17.6,29.7-24.9,47.3-16.3
		C1238.6,880.4,1245.9,901.6,1237.4,919.1L1237.4,919.1z"/>
	<path class="st4" d="M1187.1,900.9c-0.9-0.5-2,0.1-2.2,1.2c-1.3,6.9,3.7,15,12.3,19.2c8.7,4.2,18.2,3.1,22.8-2.2
		c0.7-0.8,0.3-1.9-0.5-2.4L1187.1,900.9L1187.1,900.9z"/>
	<path class="st4" d="M1202.1,911.1c4.7,2.3,9.5,3.5,13.6,3.7l-25-12.2C1193.5,905.8,1197.4,908.8,1202.1,911.1L1202.1,911.1z"/>
	<path class="st4" d="M1199.1,918c-2.5-1.2-5.2-1.3-7.6-0.6c1.7,1.4,3.6,2.7,5.7,3.7c2.3,1.1,4.7,1.9,7,2.2
		C1203.3,921.2,1201.5,919.2,1199.1,918L1199.1,918z"/>
	<path class="st4" d="M1227.3,912.7c0.2,0.4,0.8,0.3,1,0v0c1.1-2.3,0.2-5.1-2.2-6.2c-2.3-1.1-5.1-0.2-6.2,2.2v0
		c-0.2,0.4,0.1,0.8,0.6,0.8c1.3-0.1,2.7,0.1,3.9,0.7C1225.6,910.7,1226.6,911.6,1227.3,912.7L1227.3,912.7z"/>
	<path class="st4" d="M1192.1,895.6c0.2,0.4,0.8,0.3,1,0v0c1.1-2.3,0.2-5.1-2.2-6.2s-5.1-0.2-6.2,2.2v0c-0.2,0.4,0.1,0.8,0.6,0.8
		c1.3-0.1,2.7,0.1,3.9,0.7C1190.4,893.6,1191.4,894.5,1192.1,895.6L1192.1,895.6z"/>
	<path class="st4" d="M1189.3,885.3c-0.1,0-0.2-0.1-0.2-0.1c-0.5-0.4-0.6-1.1-0.2-1.6c1.3-1.6,3.1-2.4,5-2.3c2,0.1,3.9,1.1,4.9,2.6
		c0.4,0.5,0.2,1.2-0.3,1.6c-0.5,0.4-1.2,0.2-1.6-0.3c-0.6-0.9-1.8-1.5-3.1-1.5c-0.9,0-2.1,0.2-3.1,1.5
		C1190.4,885.4,1189.8,885.6,1189.3,885.3L1189.3,885.3z"/>
	<path class="st4" d="M1230.3,905.3c-0.5-0.2-0.7-0.8-0.6-1.3c0.4-1.6-0.2-2.7-0.8-3.4c-0.8-1-2.1-1.5-3.1-1.5
		c-0.6,0-1.2-0.4-1.2-1.1s0.4-1.2,1.1-1.2c1.8-0.1,3.8,0.8,5,2.3c1.3,1.5,1.7,3.4,1.3,5.4c-0.2,0.6-0.8,1-1.4,0.8
		C1230.4,905.4,1230.4,905.3,1230.3,905.3L1230.3,905.3z"/>
	<path class="st6" d="M1242.1,912.8c-1.5,3.2-4.9,4.7-7.6,3.4c-2.7-1.3-3.5-4.9-2-8.1c1.2-2.4,6.8-6.9,9.4-8.9
		c0.6-0.4,1.3,0,1.4,0.7C1243.3,903.2,1243.3,910.4,1242.1,912.8L1242.1,912.8z"/>
</g>
<g class="st7">
	<path class="st1" d="M1352.2,2727c-5.8,15.9-23.4,24.1-39.3,18.3c-15.9-5.8-24.1-23.4-18.3-39.3c5.8-15.9,23.4-24.1,39.3-18.3
		C1349.8,2693.5,1358,2711.1,1352.2,2727L1352.2,2727z"/>
	<path class="st8" d="M1347.1,2706.4c-1.4-10.7-12.4-7.5-13.4-0.2c-0.7,5.7,2.3,15.3,2.3,15.3c0.9,0,10,0,15.3-2.4
		C1357.9,2716,1357.7,2704.5,1347.1,2706.4L1347.1,2706.4z"/>
	<path class="st8" d="M1311.8,2693.5c8-7.2,14.3,2.3,10.4,8.4c-3.1,4.8-11.6,10.2-11.6,10.2c-0.7-0.6-7.7-6.4-10.2-11.6
		C1297.3,2693.9,1304.9,2685.3,1311.8,2693.5L1311.8,2693.5z"/>
	<path class="st4" d="M1310.8,2718.4c-0.6-0.5-1.6,0-1.7,0.9c-0.6,5.4,2.9,10.8,8.6,12.8c5.7,2.1,11.8,0.1,14.8-4.3
		c0.5-0.8,0.1-1.8-0.7-1.8c-3.5-0.1-7.3-0.8-11.1-2.2C1316.9,2722.5,1313.6,2720.6,1310.8,2718.4L1310.8,2718.4z"/>
	<path class="st8" d="M1319.5,2727.2c-2.5-0.9-5.2-0.2-7,1.7c1.4,1.4,3.1,2.6,5.1,3.3c2,0.7,4.1,1,6.1,0.8
		C1323.6,2730.4,1322,2728.1,1319.5,2727.2L1319.5,2727.2z"/>
</g>
<g class="st9">
	<path class="st1" d="M1025.1,3329c6.1,15.6-1.5,33.1-17.1,39.3c-15.6,6.1-33.1-1.5-39.3-17.1c-6.1-15.6,1.5-33.1,17.1-39.3
		C1001.4,3305.8,1019,3313.5,1025.1,3329L1025.1,3329z"/>
	<path class="st4" d="M1003.6,3357.2L1003.6,3357.2c-3.1,1.2-6.6-0.3-7.8-3.4l-1.3-3.3c-1.2-3.1,0.3-6.6,3.4-7.8
		c3.1-1.2,6.6,0.3,7.8,3.4l1.3,3.3C1008.3,3352.5,1006.8,3356,1003.6,3357.2L1003.6,3357.2z"/>
	<path class="st6" d="M1010.1,3327.8l-4.2,0.2l12.7,32.3c2.3-2.1,4.2-4.6,5.7-7.4l-11-27.9L1010.1,3327.8L1010.1,3327.8z"/>
	<path class="st6" d="M978.9,3340.1l-4.2,0.2l11,27.9c2.9,1,6,1.5,9.2,1.5l-12.7-32.3L978.9,3340.1L978.9,3340.1z"/>
	<path class="st4" d="M975.1,3339.4c-0.4-0.1-0.7,0.3-0.5,0.6v0c0.8,2.1,3.1,3.1,5.2,2.3c2.1-0.8,3.1-3.1,2.3-5.2v0
		c-0.1-0.3-0.6-0.4-0.8-0.1c-0.7,0.9-1.6,1.6-2.7,2.1C977.4,3339.5,976.2,3339.6,975.1,3339.4L975.1,3339.4z"/>
	<path class="st4" d="M1006.3,3327.1c-0.4-0.1-0.7,0.3-0.5,0.6v0c0.8,2.1,3.1,3.1,5.2,2.3c2.1-0.8,3.1-3.1,2.3-5.2v0
		c-0.1-0.3-0.6-0.4-0.8-0.1c-0.7,0.9-1.6,1.6-2.7,2.1C1008.5,3327.2,1007.4,3327.3,1006.3,3327.1L1006.3,3327.1z"/>
	<path class="st4" d="M1010.6,3321.3l-0.2,0.1c-4.9,1.1-8.6-1.7-8.8-1.8c-0.4-0.3-0.5-1-0.2-1.4c0.3-0.4,1-0.5,1.4-0.2
		c0.1,0,3.2,2.4,7.2,1.5c0.5-0.1,1.1,0.2,1.2,0.8C1011.3,3320.6,1011,3321.1,1010.6,3321.3L1010.6,3321.3z"/>
	<path class="st4" d="M974.1,3335.6c-0.4,0.2-1,0-1.2-0.4c-0.3-0.5-0.1-1.1,0.4-1.4c3.5-2,4.2-5.9,4.2-6c0.1-0.5,0.6-0.9,1.1-0.8
		c0.5,0.1,0.9,0.6,0.8,1.1c0,0.2-0.9,4.8-5.2,7.3L974.1,3335.6L974.1,3335.6z"/>
</g>
<g class="st10">
	<path class="st1" d="M210.5,2190.5c6.3,25-8.9,50.4-33.9,56.7c-25,6.3-50.4-8.9-56.7-33.9c-6.3-25,8.9-50.4,33.9-56.7
		C178.8,2150.3,204.2,2165.5,210.5,2190.5"/>
	<path class="st4" d="M179.8,2221.5c-0.5,0.1-1.1,0.1-1.5-0.2c-2.3-1.3-5.2-1.7-8-1.1c-3.2,0.7-5.8,2.5-7.4,4.9
		c-0.6,1-1.9,1.3-2.9,0.7c-1-0.6-1.3-1.9-0.7-2.9c2.2-3.4,5.9-5.9,10.1-6.8c3.8-0.8,7.7-0.3,11,1.5c1,0.6,1.4,1.9,0.8,2.9
		C180.9,2221,180.4,2221.4,179.8,2221.5L179.8,2221.5z"/>
	<path class="st4" d="M134.2,2194.3c-0.4,0.1-0.8,0-1.1-0.2c-0.6-0.4-0.7-1.2-0.3-1.8c2.3-3.2,5.6-5.8,9.4-7.1
		c0.7-0.2,1.4,0.1,1.7,0.8c0.2,0.7-0.1,1.4-0.8,1.7c-3.2,1.1-6.1,3.3-8.1,6.1C134.7,2194.1,134.5,2194.2,134.2,2194.3L134.2,2194.3z
		"/>
	<path class="st4" d="M188.9,2180.5c-0.3,0.1-0.6,0-0.9-0.1c-3.1-1.5-6.6-2.1-10-1.5c-0.7,0.1-1.4-0.4-1.5-1.1
		c-0.1-0.7,0.4-1.4,1.1-1.5c3.9-0.6,8,0,11.6,1.8c0.6,0.3,0.9,1.1,0.6,1.8C189.6,2180.2,189.3,2180.4,188.9,2180.5L188.9,2180.5z"/>
	<path class="st11" d="M193.4,2192c1.4,5.5-1.8,11-7.1,12.3c-5.3,1.3-10.7-2-12.1-7.5c-1.4-5.5,1.8-11,7.1-12.3
		C186.6,2183.2,192,2186.6,193.4,2192L193.4,2192z"/>
	<path class="st4" d="M187.9,2193.4c0.6,2.3-0.8,4.7-3,5.3c-2.3,0.6-4.6-0.9-5.2-3.2c-0.6-2.3,0.8-4.7,3-5.3
		C185,2189.6,187.3,2191.1,187.9,2193.4L187.9,2193.4z"/>
	<path class="st11" d="M154.8,2201.7c1.4,5.5-1.8,11-7.1,12.3c-5.3,1.3-10.7-2-12.1-7.5c-1.4-5.5,1.8-11,7.1-12.3
		C148,2192.9,153.4,2196.3,154.8,2201.7L154.8,2201.7z"/>
	<path class="st4" d="M149.3,2203.1c0.6,2.3-0.8,4.7-3,5.3c-2.3,0.6-4.6-0.9-5.2-3.2c-0.6-2.3,0.8-4.7,3-5.3
		C146.4,2199.3,148.7,2200.8,149.3,2203.1L149.3,2203.1z"/>
	<path class="st12" d="M199.7,2218.1c-3.9,1-7.8-1.4-8.7-5.2c-1-3.9,1.4-7.8,5.2-8.7c3.9-1,7.8,1.4,8.7,5.2
		C205.9,2213.2,203.6,2217.1,199.7,2218.1"/>
	<path class="st12" d="M142.4,2232.5c-3.9,1-7.8-1.4-8.7-5.2c-1-3.9,1.4-7.8,5.2-8.8c3.9-1,7.8,1.4,8.7,5.2
		C148.6,2227.6,146.3,2231.5,142.4,2232.5"/>
</g>
<g>
	<path class="st1" d="M1410.3,1841c-20.8,30.9-62.8,39.1-93.7,18.2c-30.9-20.8-39.1-62.8-18.2-93.7c20.8-30.9,62.8-39.1,93.7-18.2
		C1423,1768.2,1431.1,1810.1,1410.3,1841L1410.3,1841z"/>
	<path class="st4" d="M1368.2,1837.9l-51.1-34.4c-1.5-1-1.9-3.1-0.9-4.6c1-1.5,3.1-1.9,4.6-0.9l51.1,34.4c1.5,1,1.9,3.1,0.9,4.6
		C1371.7,1838.5,1369.7,1838.9,1368.2,1837.9L1368.2,1837.9z"/>
	<path class="st4" d="M1390,1813.5c-2.2,3.3-6.6,4.1-9.9,1.9c-3.3-2.2-4.1-6.6-1.9-9.9s6.6-4.1,9.9-1.9
		C1391.4,1805.8,1392.2,1810.2,1390,1813.5L1390,1813.5z"/>
	<path class="st4" d="M1343.3,1782c-2.2,3.3-6.6,4.1-9.9,1.9c-3.3-2.2-4.1-6.6-1.9-9.9c2.2-3.3,6.6-4.1,9.9-1.9
		C1344.6,1774.3,1345.5,1778.7,1343.3,1782L1343.3,1782z"/>
</g>
<g>
	<path class="st1" d="M219,1410.1c-0.8,4.9-5.4,8.2-10.3,7.4c-4.9-0.8-8.2-5.4-7.4-10.3c0.8-4.9,5.4-8.2,10.3-7.4
		C216.5,1400.6,219.8,1405.2,219,1410.1L219,1410.1z"/>
	<path class="st4" d="M215.3,1406.4c0,0.3-0.1,0.5-0.3,0.7c-0.1,0.1-0.3,0.2-0.4,0c-0.1-0.1-0.3-0.2-0.4-0.2c-0.2,0-0.3,0-0.5,0.1
		c-0.1,0.1-0.3,0-0.3-0.2c-0.1-0.2-0.1-0.5,0-0.8c0.1-0.7,0.6-1.3,1.2-1.2C215.1,1405,215.5,1405.6,215.3,1406.4L215.3,1406.4z"/>
	<path class="st4" d="M207.8,1405.2c0,0.3-0.1,0.5-0.3,0.7c-0.1,0.1-0.3,0.2-0.4,0c-0.1-0.1-0.3-0.2-0.4-0.2c-0.2,0-0.3,0-0.5,0.1
		c-0.1,0.1-0.3,0-0.3-0.2c-0.1-0.2-0.1-0.5,0-0.8c0.1-0.7,0.6-1.3,1.2-1.2C207.6,1403.8,207.9,1404.4,207.8,1405.2L207.8,1405.2z"/>
	<path class="st4" d="M205.5,1408.4c-0.3,0-0.5,0.2-0.5,0.4c0.2,1.8,2,3.4,4.4,3.8c2.4,0.4,4.7-0.6,5.4-2.2c0.1-0.2-0.1-0.5-0.3-0.5
		L205.5,1408.4L205.5,1408.4z"/>
	<path class="st11" d="M209.9,1409.8c1.3,0.2,2.6,0.2,3.6-0.1l-7-1.1C207.5,1409.1,208.6,1409.5,209.9,1409.8L209.9,1409.8z"/>
	<path class="st8" d="M209.7,1411.7c-0.7-0.1-1.4,0.1-1.9,0.4c0.5,0.2,1.1,0.4,1.7,0.5c0.6,0.1,1.3,0.1,1.9,0
		C211,1412.1,210.4,1411.8,209.7,1411.7L209.7,1411.7z"/>
</g>
<g class="st13">
	<path class="st1" d="M468.9,1035.7c-2.5,12.7-14.9,21-27.6,18.5c-12.7-2.5-21-14.9-18.5-27.6c2.5-12.7,14.9-21,27.6-18.5
		C463.2,1010.6,471.5,1023,468.9,1035.7L468.9,1035.7z"/>
	<path class="st4" d="M459.4,1033.3c0.2,0.2,0.6,0.1,0.6-0.2l0,0c0.3-1.7-0.8-3.3-2.4-3.6c-1.7-0.3-3.3,0.8-3.6,2.4l0,0
		c-0.1,0.3,0.2,0.5,0.5,0.4c0.8-0.3,1.7-0.4,2.6-0.2C457.9,1032.3,458.7,1032.7,459.4,1033.3L459.4,1033.3z"/>
	<path class="st4" d="M437.6,1029c0.2,0.2,0.6,0.1,0.6-0.2l0,0c0.3-1.7-0.8-3.3-2.4-3.6s-3.3,0.8-3.6,2.4l0,0
		c-0.1,0.3,0.2,0.5,0.5,0.4c0.8-0.3,1.7-0.4,2.6-0.2C436.2,1028,437,1028.4,437.6,1029L437.6,1029z"/>
	<path class="st4" d="M443.5,1044.1c-3.9-0.8-7.4-3-9.7-6.2c-0.4-0.5-0.3-1.2,0.3-1.6c0.5-0.4,1.2-0.3,1.6,0.3
		c1.9,2.7,4.9,4.6,8.2,5.3c3.2,0.6,6.6,0.1,9.3-1.6c0.5-0.3,1.2-0.1,1.6,0.4c0.3,0.5,0.1,1.3-0.4,1.6
		C451.1,1044.2,447.2,1044.9,443.5,1044.1L443.5,1044.1z"/>
	<path class="st14" d="M448.8,1015.6c-13.2-2.6-19.4-6.9-19.2-8.2c0.1-0.3,0.7-0.7,1.7-1c4.2-2.5,13.9-1.6,19.5-0.5
		c5.7,1.1,15.3,4,18,8.1l0,0c0.6,0.6,0.9,1,0.9,1.3C469.4,1016.6,462.1,1018.2,448.8,1015.6L448.8,1015.6z M451.1,1004.3
		c-7.9-1.6-23.1-3-24.2,2.6c-1.1,5.6,13.5,10,21.4,11.6c7.9,1.6,23.1,3,24.2-2.6C473.6,1010.3,459,1005.9,451.1,1004.3L451.1,1004.3
		z"/>
	<path class="st15" d="M468.8,1014.1L468.8,1014.1c-2.7-4.1-12.3-7-18-8.1c-5.6-1.1-15.2-2-19.5,0.5c2.9-0.8,9.5-1.2,19.1,0.7
		C460.7,1009.2,466.7,1012.2,468.8,1014.1L468.8,1014.1z"/>
</g>
<g class="st16">
	<path class="st1" d="M389.6,3097.1c-3.8,12.4-16.9,19.4-29.3,15.6c-12.4-3.8-19.4-16.9-15.6-29.3c3.8-12.4,16.9-19.4,29.3-15.6
		C386.4,3071.5,393.4,3084.7,389.6,3097.1L389.6,3097.1z"/>
	<path class="st4" d="M362.9,3100.2c-0.3-0.1-0.6-0.4-0.5-0.8c0-0.4,0.4-0.7,0.8-0.6c0.8,0.1,2.3-0.1,2.8-0.7c0.1-0.1,0.2-0.3,0-0.7
		c-0.3-0.8-1.8-0.6-2.7-0.3c-0.4,0.1-0.8-0.1-0.9-0.4c-0.1-0.4,0.1-0.8,0.4-0.9c1.8-0.6,3.8-0.5,4.5,1.1c0.4,1,0.1,1.7-0.2,2.1
		c-1,1.2-3.2,1.4-4.1,1.3L362.9,3100.2L362.9,3100.2z"/>
	<path class="st4" d="M363.3,3104.4c-0.9-0.3-1.8-1-2.4-1.9c-0.2-0.3-0.2-0.8,0.1-1c0.3-0.2,0.8-0.2,1,0.1c0.6,0.8,1.7,1.7,2.3,1.3
		c0.3-0.2,0.4-0.4,0.4-0.6c0-0.7-1.2-1.8-1.9-2.2c-0.4-0.2-0.5-0.6-0.3-1c0.2-0.4,0.6-0.5,1-0.3c0.8,0.4,2.6,1.8,2.7,3.4
		c0,0.5-0.1,1.3-1,1.9C364.6,3104.5,363.9,3104.6,363.3,3104.4L363.3,3104.4z"/>
	<path class="st4" d="M376.1,3090.8c-0.1-0.1-0.4,0-0.4,0.1c-0.1,1.4,0.9,2.9,2.5,3.4c1.6,0.5,3.2-0.1,3.9-1.4
		c0.1-0.2-0.1-0.4-0.2-0.3c-1,0.2-2,0.2-3.1-0.1S376.8,3091.6,376.1,3090.8L376.1,3090.8z"/>
	<path class="st4" d="M353.8,3084c-0.1-0.1-0.4,0-0.4,0.1c-0.1,1.4,0.9,2.9,2.5,3.4c1.6,0.5,3.2-0.1,3.9-1.4
		c0.1-0.2-0.1-0.4-0.2-0.3c-1,0.2-2,0.2-3.1-0.1C355.4,3085.3,354.5,3084.7,353.8,3084L353.8,3084z"/>
	<path class="st4" d="M353.5,3080c-0.1,0-0.2-0.1-0.3-0.2c-0.3-0.3-0.3-0.8,0.1-1.1c1.9-1.7,4.6-2.4,6.7-1.7c0.4,0.1,0.6,0.6,0.5,1
		c-0.1,0.4-0.6,0.6-1,0.5l-0.1,0c-1.6-0.5-3.6,0.1-5.1,1.4C354.1,3080,353.8,3080.1,353.5,3080L353.5,3080z"/>
	<path class="st4" d="M384.4,3089.4c-0.3-0.1-0.5-0.3-0.5-0.6c-0.5-1.9-1.8-3.5-3.5-4l-0.1,0c-0.4-0.1-0.6-0.5-0.5-0.9
		c0.1-0.4,0.5-0.6,0.9-0.5l0.1,0c2.1,0.6,3.9,2.7,4.5,5.1c0.1,0.4-0.2,0.8-0.6,0.9C384.6,3089.5,384.5,3089.5,384.4,3089.4
		L384.4,3089.4z"/>
</g>
</svg>
