<?xml version="1.0" encoding="utf-8"?>
<!-- Generator: Adobe Illustrator 23.0.1, SVG Export Plug-In . SVG Version: 6.00 Build 0)  -->
<svg version="1.1" id="Layer_1" xmlns="http://www.w3.org/2000/svg" xmlns:xlink="http://www.w3.org/1999/xlink" x="0px" y="0px"
	 viewBox="0 0 703.69 207.58" style="enable-background:new 0 0 703.69 207.58;" xml:space="preserve">
<style type="text/css">
	.st0{fill:#FECC5C;}
	.st1{fill:#231F20;}
</style>
<g>
	<path class="st0" d="M703.68,68.66c-2.95-0.14-5.89-0.29-8.85-0.43c-1.02,3.4,1.65,4.86,1.99,7.79
		C701.74,78.64,703.76,72.9,703.68,68.66z"/>
	<path class="st0" d="M659.12,127.48c-3.65,0.36-7.29,0.44-10.94,0.8c-5.19-1.05-9.39-4.16-15.32-3.39
		c-1.43,1.79-2.84,3.31-4.5,5.08c-3.57-1.76-5.68-6.36-9.52-6.81c-4.97-0.77-10.17-1.55-15.15-2.06
		c-5.27-5.02-10.87-1.04-16.33-0.78c-1.31-1.39-2.85-2.79-4.17-4.18c-2.95-0.14-5.9-0.28-8.85-0.42c-0.68-0.04-1.35-0.07-2.04-0.11
		c-2.51,0.41-5.25,0.8-7.75,0.95c0.07-2.11,0.15-4.23,2.67-11.26c0.02-0.53,0.03-0.8,0.05-1.32c2.36-2.54,5.21,0.51,6.48-3.4
		c2.22-4.93-4.08-6.56-0.36-15.39c8.93,4.41,16.39-1.06,24.95,1.21c1.18-1.28,2.35-2.28,3.31-3.56c0.09-2.64,0.18-5.02,0.27-7.67
		c1.56,0.86,4.67,2.6,5.49-1.07c2.03,0.62,3.6,0.96,5.4,1.58c1.49,2.99,1.12,6.69,4.22,9.22c7.58,3.81,4.51-5.35,7.85-9.96
		c0.08,4.24,6.7,3.24,8.85,0.42c0.68,0.04,1.36,0.06,2.04,0.1c2.22,1.43,4.22,2.85,6.44,4.29c1.82,0.08,3.63,0.17,5.45,0.26
		c8.05-3.05,1.43,10.94,13.07,3.02c0.76-2.34,1.54-4.96,2.31-7.58c1.13,0.06,2.27,0.12,3.4,0.17c2.98-0.92,5.75-2.1,8.75-3.3
		c5.94-1.03,13.49,3.83,17.64-4.19c-6.08-1.62-12.15-3.24-18.46-4.87c-1.37-0.06-2.95-0.14-4.31-0.2
		c-15.12-2.85-30.24-5.7-45.59-8.55c0.25-7.15-4.84-4.48-8.58-1.48c-7.71-0.37-15.19-0.74-22.9-1.1c-1.18-5.36-4.98-6.87-3.95-10.53
		c-2.48-0.39-4.58,1.11-6.66,2.34c-1.3-8.29-7.9-1.45-11.98-1.91c-2.48-0.65-4.96-1.04-7.43-1.69c-0.66-0.82-1.31-1.65-2.19-2.49
		c-2.45-1.18-4.93-2.09-7.39-3.01c-3.45,1.16-6.67,2.33-10.11,3.22c-5.76-10.35-13.04,2.82-20.72,1.65
		c-1.78-1.41-0.53-4.26-0.91-6.41c-7.92-0.91-14.51,5.68-21.9,2.67c-6.28,4.19-13.92,1.71-21.82,0.27
		c-0.77,2.62-1.53,4.96-2.31,7.58c-1.36-0.07-2.95-0.14-4.31-0.2c-0.78-3.76-2.57-4.63-2.04-6.47c-2.49-0.12-4.99-0.24-7.71-0.37
		c-3.34-1.76-7.95-6.47-10.79-3.17c-2.24,5.46-8.61-0.68-10.88,5.84c-0.91-0.05-1.59-0.07-2.27-0.11
		c-4.29-7.37-13.62-0.39-17.21-8.25c-1.77-1.15-9.82-4.73-7.56,2.02c-8.48,1.97-14.09,0.11-22.95,0.22
		c-1.04,3.93-5.75,1.84-8.89,0.89c-6.62,1.01-15.75,2.16-23.76-2.47c-3.58,4.87-4.95,5.07-5.4-1.58c-5.1,2.93-5.81,3.96-9.84,2.18
		c-3.01,1.71-8.23,1.45-10.89-0.53c-0.71,7.12-6.62,1.01-10.03,0.84c-1.29-1.91-2.82-3.58-4.12-5.49c-4.06-0.73-0.94,7.11-5.63,5.03
		c-1.82,0.18-3.65,0.62-5.48,0.79c-1.87,1.51-4.12,1.13-9.67-2.85c-1.36-0.06-2.95-0.14-4.31-0.21c-3.6-1.24-7.19-2.2-10.8-3.17
		c-0.93,0.49-1.62,0.72-2.31,1.22c-9.05-1.24-18.08-2.46-27.12-3.96c-2.05-0.1-4.31-0.2-6.57-0.32c-2.97,0.39-6.31-1.36-8.67,0.91
		c-2.52,0.67-5.27,1.34-7.8,2.27c-2-1.42-4.27-1.52-6.31-1.63c-2.31,1.22-4.63,2.43-6.71,3.39c-4.07-0.46-7.91-1.17-11.98-1.64
		c-5.43-0.79-10.85-1.58-16.29-2.11c-0.49,1.3-0.76,2.35-1.26,3.65c-3.26-3.87-9.62-4.17-12.06,0.75c-1.83,0.17-3.65,0.61-5.5,1.05
		c-4.98-0.24-9.98-0.48-15.19-0.73c-6.57-0.32-12.92-0.62-19.5-0.94c-5.18-1.31-9.34,0.87-16.46,2.92
		c-1.83,0.44-3.66,0.61-5.49,1.06c-2.27-0.11-4.31-0.2-6.58-0.32c-3.66,0.62-7.31,1.23-10.98,2.12c-3.17-0.16-6.57-0.31-9.83,1.91
		c-4.11,0.6-8,1.21-12.11,2.07c-4.08-0.19-7.94-0.38-12.02-0.57c-2.95,0.12-7.45-1.43-8.66,0.9c-2.52,0.68-5.27,1.34-7.79,2.01
		c-1.39,0.74-3,1.45-4.4,2.44c-1.48,3.37-3.18,6.48-4.66,9.84c-0.5,1.3-1,2.61-1.27,3.92c-0.61,4.48-1.01,9.22-1.62,13.71
		c-1.13-0.06-2.04-0.11-3.17-0.16c-4.02-1.78-7.82-3.82-11.84-5.61c-0.73,1.56-1.48,3.38-2.44,4.92c-2.19-2.23-5.99-4.01-8.58-1.48
		c-0.37,3.96-0.27,7.67,3.95,10.27c-1.42,1.52-3.07,3.29-4.49,4.82c0.51,4.79-2.19,10.76,2.68,14.18
		c-1.08,4.72-2.37,9.16-3.67,13.86c-6.93,3.12-4.57,13.58,0.41,20.43c-6.58,6.05-0.83,10.57,1.46,16.51
		c-0.09,2.64-0.18,5.03-0.27,7.67c1.14,0.06,2.27,0.12,3.41,0.17c-0.09,2.38-0.18,5.03-0.28,7.67c1.51,2.19,4.34,5.78,6.27,9.05
		c-0.03,0.79-0.06,1.59-0.09,2.65c0.29,4.78,9.97,0.74,10.58,9.25c0.77-2.35,1.54-4.96,2.3-7.31c5.01,6.07,5.73,11.41,9.27,14.23
		c2.12-2.01,3.76-3.52,4.8-7.18c1.81,0.09,0.8-3.41,0.22-6.35c1.9-2.3,3.55-4.07,5.67-6.09c2.37,3.82,2.29,5.94,6.18,5.33
		c0.46-6.61,8.53-3.56,12.34-8.42c4.31,0.21,11.85,5.35,12.2-4.44c6.47,3.22,14.23,2.27,18.69-1.75c2.93,0.67,4.66,3.14,7.39,3
		c3.43-0.62,6.63-1.26,9.84-2.17c8.61,0.69,12.21-4.71,18.77-4.13c3.21-0.64,6.64-1.27,9.84-1.91c2.99-0.91,5.96-1.57,8.94-2.22
		c3.13,1.47,6.3,1.63,10.98-2.13c2.73,0.14,5.67,0.28,8.62,0.42c2.94,0.13,5.67,0.26,8.62,0.41c3.36,1.48,6.53,1.64,10.97-1.86
		c1.59,0.08,2.95,0.15,4.53,0.22c2.2,1.97,8.55,2.26,11.84-0.76c5.24-0.55,10.27-1.09,15.52-1.9c2.57,4.37,10.55,3.43,15.19,0.74
		c2.5-0.14,5.02-0.56,7.52-0.7c11.85,5.34,22.13-2.64,33.88-1.02c4.88-2.95,13.1,1.95,16.46-2.92c10.25-0.56,22.6,3.21,30.71-1.17
		c2.49,0.38,5.71-0.79,7.44,1.67c21.8-6.36,42.47,0.46,65.49-1.87c0.47-0.51,0.72-1.03,1.18-1.27c1.81,0.36,4.35-0.85,5.39,1.58
		c14.7,2.03,34.83,4.6,49.04,1.03c11.81,0.05,22.49,6.12,37.06-0.86c1.13,0.06,2.27,0.11,3.17,0.15c2.67,1.46,5.13,2.9,7.57,4.34
		c0.1,0.02,0.18,0.02,0.26,0.01c2.16,0.11,4.13,0.2,6.31,0.31c0.28,4.79,3.05,3.6,6.57,0.32c5.69-0.25,11.61-0.5,17.28-0.49
		c2.27,0.11,4.54,0.22,6.58,0.32c10.2,0.75,20.38,1.78,30.57,2.79c6.14-0.23,12.29-0.46,18.42-0.43c0.4,1.34,0.82,2.42,1,3.76
		c2.28-0.16,4.33-0.58,6.62-1.01c2.04,0.1,4.32,0.21,6.58,0.32c1.72,2.74,3.54,2.83,5.35,2.91c1-2.61,2.22-4.93,3.44-7.52
		c2.5,0.12,5.21,0.25,7.72,0.36c3.61,0.71,7.23,1.15,10.84,1.85c0.68,0.03,1.36,0.06,2.04,0.11c2.49,0.38,5.19,1.04,7.66,1.68
		c4.1-0.33,7.98-0.67,12.07-0.74c4.3,0.47,9.29,0.45,8.79-4.61c-1.05-2.7-2.09-5.14-2.9-7.83
		C663.9,140.16,662.63,130.83,659.12,127.48z M77.95,120.9 M114.03,119.21c0.41-1.53,2.06-1.25,3.51-1.2
		c-0.04,0.02-0.07,0.04-0.11,0.06C116.04,117.76,114.99,118.32,114.03,119.21z M109.78,123.42c-0.91,0.53-1.97,0.77-3.28,0.5
		C107.59,123.86,108.68,123.7,109.78,123.42z M119.84,116.72c0.04-0.32,0.03-0.7-0.05-1.18c0.72,0.08,1.4,0.09,2.06,0.07
		C121.18,115.97,120.51,116.34,119.84,116.72z M86.88,153.44c2.12,0.1,4.24,0.2,6.35,0.31C90.28,153.61,88.69,153.53,86.88,153.44
		C86.88,153.44,86.88,153.44,86.88,153.44z M216.01,137.93c2.96-1.07,6.1-1.92,9.09-2.96C222.2,136.21,221.81,139.68,216.01,137.93z
		"/>
	<path class="st0" d="M606.41,102.14c-2.12-4.61-6-4-12.93-0.63C594.71,105.29,599.23,106.03,606.41,102.14z"/>
</g>
<g>
	<g>
		<path class="st1" d="M68.11,101.16c-1.28,13.56-2.07,26.33-3.67,33.34c-1.12,5.26-2.23,6.7-6.38,6.7c-1.12,0-2.55-0.32-2.55-4.15
			c0-1.44,0.32-3.51,0.8-6.22c1.75-10.53,2.71-18.51,3.67-31.91c0.32-4.79,2.23-24.57,3.35-31.75c0.96-6.38,1.12-13.88,6.22-13.88
			c2.71,0,3.51,1.6,3.51,5.42c0,0.32,0,0.8,0,1.12C71.94,77.06,69.55,84.88,68.11,101.16z M71.78,37.34c-2.39,0-3.67-2.39-3.67-4.79
			c0-3.35,0.48-17.23,7.18-17.23c2.71,0,4.63,1.44,4.63,6.38C79.6,27.77,79.6,37.34,71.78,37.34z"/>
	</g>
	<g>
		<path class="st1" d="M201.05,142c-3.51,0-4.15-1.6-4.15-3.51c0-0.48,0.16-0.96,0.16-1.44c1.91-20.42,6.22-57.92,7.02-60.79
			c-11.33,21.7-35.1,63.66-52.33,63.66c-3.51,0-11.65-6.7-11.65-20.58c0-6.54,3.19-23.61,12.6-38.61
			c5.11-8.3,12.13-15.96,21.54-21.06c8.46-4.63,15.79-7.02,21.54-7.02c7.34,0,9.25,2.39,10.69,2.87c1.6-13.88,4.31-38.13,5.11-45.95
			C211.9,5.43,212.7,0,216.85,0c3.19,0,3.99,2.55,3.99,5.11c0,1.28-0.16,2.71-0.32,3.67l-7.66,63.66
			c-1.6,13.08-3.35,21.22-4.15,33.5c-0.8,11.65-1.75,21.06-2.39,29.04C205.68,141.2,204.72,142,201.05,142z M204.56,64.14
			c-2.87-1.92-6.22-4.15-8.3-4.15c-15.16,0-28.56,11.81-36.7,25.53c-7.5,12.29-11.33,26.17-11.33,33.98c0,4.79,0,11.33,6.7,11.97
			c7.02,0,22.66-22.82,32.39-40.21C194.03,79.94,201.21,70.2,204.56,64.14z"/>
		<path class="st1" d="M245.73,101.16c-1.28,13.56-2.07,26.33-3.67,33.34c-1.12,5.26-2.23,6.7-6.38,6.7c-1.12,0-2.55-0.32-2.55-4.15
			c0-1.44,0.32-3.51,0.8-6.22c1.75-10.53,2.71-18.51,3.67-31.91c0.32-4.79,2.23-24.57,3.35-31.75c0.96-6.38,1.12-13.88,6.22-13.88
			c2.71,0,3.51,1.6,3.51,5.42c0,0.32,0,0.8,0,1.12C249.56,77.06,247.16,84.88,245.73,101.16z M249.4,37.34
			c-2.39,0-3.67-2.39-3.67-4.79c0-3.35,0.48-17.23,7.18-17.23c2.71,0,4.63,1.44,4.63,6.38C257.21,27.77,257.21,37.34,249.4,37.34z"
			/>
		<path class="st1" d="M320.71,81.69c-1.28,7.5-9.89,56.8-11.17,62.54c-3.99,20.74-8.77,32.55-22.18,44.03
			c-10.37,8.62-26.01,16.27-44.35,15.32c-6.38-0.32-14.36-2.23-20.26-4.79c-10.05-4.63-16.11-11.01-16.59-12.44
			c-0.32-1.44,1.12-2.71,2.87-2.87c2.23-0.16,7.66,4.79,15.32,8.46c5.11,2.55,11.97,4.63,17.71,4.63c13.88,0,29.52-2.71,40.37-12.92
			c7.5-6.22,11.65-11.97,15.32-23.61c1.6-4.47,4.95-19.94,6.7-33.03c1.76-12.6,3.83-25.37,5.74-35.1
			c-8.14,10.05-29.83,45.15-40.84,45.15c-6.54,0-6.22-9.09-6.22-11.49c0-9.57,4.63-24.89,8.93-33.03
			c3.19-6.06,11.49-18.67,22.5-29.2c4.95-4.79,22.34-13.08,28.72-12.29c3.67,0.48,6.54,2.87,6.38,4.63
			C329.17,59.99,322.95,70.36,320.71,81.69z M290.72,79.46c-10.53,13.24-15.8,25.37-18.19,36.54c-0.96,4.15-1.6,11.65,0.32,11.81
			c2.23,0.16,27.6-28.88,35.58-44.83c3.99-7.82,4.31-9.73,7.5-21.38C310.82,61.59,297.58,70.84,290.72,79.46z"/>
		<path class="st1" d="M356.45,104.83c-5.58,12.92-7.34,24.89-8.78,31.27c-0.96,2.71-0.32,6.54-5.58,6.54
			c-3.35,0-4.15-1.91-4.15-4.79c0-1.6,0.32-3.35,0.48-4.63c0.96-7.02,3.35-18.67,4.95-30.95c1.92-14.52,3.35-29.52,3.51-37.81
			c0.32-3.35,0.32-8.62,4.79-8.62c3.51,0,4.47,2.39,4.63,6.7c0.16,3.19-1.12,20.9-2.71,30.31c5.11-9.57,13.08-18.83,23.61-27.44
			c7.66-6.22,16.91-10.21,22.81-10.53c5.58-0.32,8.93,1.28,8.93,2.71c0,5.11-5.58,4.31-10.85,4.95c-5.11,0.64-12.6,5.58-20.1,12.13
			C367.46,84.08,360.76,94.77,356.45,104.83z"/>
		<path class="st1" d="M423.46,140.09c-15.79,0-21.06-17.23-22.66-24.57c-0.96-3.99-1.12-8.78-1.12-11.97v-6.7
			c-4.15-0.8-11.49,1.12-11.49-4.31c0-3.35,2.07-4.15,5.26-4.15c1.44,0,4.95,0.16,8.14,0.16c3.19-7.66,17.23-34.46,28.4-34.46
			c9.09,0,29.2,6.54,29.2,25.53c0,3.35,0,6.06-1.12,9.73c-7.98,1.28-14.2,0.96-27.44,2.71c-9.73,1.44-20.1,3.19-21.86,3.83
			c-0.8,1.28-0.64,6.86-0.64,10.53c0,1.12,1.44,26.64,16.75,26.64c8.78,0,22.66-9.41,33.5-16.27c3.35-2.07,7.18-4.31,9.57-4.31
			c1.28,0,2.23,1.6,2.23,2.71c0,2.23-6.06,4.95-8.62,6.7C449.15,130.51,434.31,140.09,423.46,140.09z M432.88,61.59
			c-6.38,0-19.62,18.99-21.7,26.17c3.03-1.6,30.31-3.19,39.57-5.42c0.16-0.96,0.48-2.55,0.48-4.47c0-2.71-0.64-6.06-2.71-8.62
			C445,65.58,439.42,61.59,432.88,61.59z"/>
		<path class="st1" d="M525.57,61.43c-4.63,2.07-12.13,4.47-20.9,9.57c-10.69,6.22-24.25,15.79-24.57,18.35
			c-0.16,1.6,4.63,2.07,11.49,2.55c3.67,0.32,8.62,0.32,12.29,0.8c5.58,0.64,12.44,2.23,16.91,4.63c4.95,2.71,7.18,6.22,7.18,10.69
			c0,1.91-2.39,5.11-6.7,8.77c-5.42,4.47-13.56,9.89-20.42,13.08c-12.13,5.74-22.18,12.6-26.96,15.48
			c-1.12,0.48-4.63,2.39-7.18,0.16c-2.07-1.91-0.96-4.79,1.91-6.54c6.22-3.99,17.71-9.41,28.08-14.68
			c11.65-6.38,22.02-12.92,22.02-17.23c0-2.87-3.83-5.42-12.13-6.86c-4.95-0.96-11.65-0.96-19.46-1.28c-1.44,0-7.18-0.16-11.81-2.39
			c-2.87-1.28-4.47-3.67-4.95-6.38c0-1.12,1.75-4.15,4.63-7.02c4.79-4.79,11.81-10.69,21.22-15.95c14.36-7.82,20.1-10.85,24.09-12.6
			c2.71-0.96,4.31-1.91,7.02-1.91c1.6,0,5.27,1.12,5.27,4.15C532.59,59.52,530.04,59.36,525.57,61.43z"/>
		<path class="st1" d="M594.82,61.43c-4.63,2.07-12.13,4.47-20.9,9.57c-10.69,6.22-24.25,15.79-24.57,18.35
			c-0.16,1.6,4.63,2.07,11.49,2.55c3.67,0.32,8.62,0.32,12.29,0.8c5.58,0.64,12.44,2.23,16.91,4.63c4.95,2.71,7.18,6.22,7.18,10.69
			c0,1.91-2.39,5.11-6.7,8.77c-5.42,4.47-13.56,9.89-20.42,13.08c-12.13,5.74-22.18,12.6-26.96,15.48
			c-1.12,0.48-4.63,2.39-7.18,0.16c-2.07-1.91-0.96-4.79,1.91-6.54c6.22-3.99,17.71-9.41,28.08-14.68
			c11.65-6.38,22.02-12.92,22.02-17.23c0-2.87-3.83-5.42-12.13-6.86c-4.95-0.96-11.65-0.96-19.46-1.28c-1.44,0-7.18-0.16-11.81-2.39
			c-2.87-1.28-4.47-3.67-4.95-6.38c0-1.12,1.75-4.15,4.63-7.02c4.79-4.79,11.81-10.69,21.22-15.95c14.36-7.82,20.1-10.85,24.09-12.6
			c2.71-0.96,4.31-1.91,7.02-1.91c1.6,0,5.27,1.12,5.27,4.15C601.84,59.52,599.29,59.36,594.82,61.43z"/>
	</g>
</g>
</svg>
